<?xml version="1.0" encoding="UTF-8"?>
<svg version="1.1" xmlns="http://www.w3.org/2000/svg" width="64" height="64">
<path d="M0 0 C3 0.6875 3 0.6875 5.3125 3.125 C7.3256068 7.37489214 7.79329354 11.03660461 8 15.6875 C9.06927734 15.23697266 9.06927734 15.23697266 10.16015625 14.77734375 C15.95859222 12.47513835 19.90331751 11.061718 26 12.6875 C27.25 14.75 27.25 14.75 28 17.6875 C25.52117882 23.50734102 21.60255202 27.43401793 17 31.6875 C17.62648437 32.37457031 18.25296875 33.06164063 18.8984375 33.76953125 C19.71570312 34.67058594 20.53296875 35.57164063 21.375 36.5 C22.18710937 37.39332031 22.99921875 38.28664062 23.8359375 39.20703125 C26 41.6875 26 41.6875 28 44.6875 C27.6758631 48.00990324 27.39223697 49.29526303 25 51.6875 C19.099469 52.289595 14.42391788 50.75375443 9 48.6875 C8.81824219 49.43515625 8.63648438 50.1828125 8.44921875 50.953125 C8.07216797 52.43039063 8.07216797 52.43039063 7.6875 53.9375 C7.44386719 54.91203125 7.20023438 55.8865625 6.94921875 56.890625 C5.98804972 59.72271152 5.04427213 61.51672589 3 63.6875 C0.0625 64.25 0.0625 64.25 -3 63.6875 C-7.69345957 59.77628369 -8.15249785 54.43044222 -9 48.6875 C-10.134375 49.1825 -11.26875 49.6775 -12.4375 50.1875 C-16.90067823 51.86616418 -21.26410796 52.44406367 -26 51.6875 C-28 49.6875 -28 49.6875 -28.4375 46.9296875 C-27.87126188 42.73345858 -25.88834183 40.68522917 -23 37.8125 C-22.52304687 37.31492188 -22.04609375 36.81734375 -21.5546875 36.3046875 C-20.38299322 35.08612545 -19.19322523 33.88498675 -18 32.6875 C-18.38671875 32.25179687 -18.7734375 31.81609375 -19.171875 31.3671875 C-27.62562153 21.69978429 -27.62562153 21.69978429 -28.5 17 C-28 14.6875 -28 14.6875 -26.5 12.8125 C-22.2460292 10.89821314 -18.16114608 11.9101386 -13.92578125 13.43359375 C-12.26334722 14.13835787 -10.62836597 14.90724131 -9 15.6875 C-8.90203125 15.02363281 -8.8040625 14.35976562 -8.703125 13.67578125 C-6.64510821 1.5228373 -6.64510821 1.5228373 0 0 Z M-1 3.6875 C-3.21975392 8.95941557 -4.47558944 12.86152942 -4 18.6875 C-3.67 19.0175 -3.34 19.3475 -3 19.6875 C-0.66055264 19.40019945 1.6739143 19.06813221 4 18.6875 C3.63495936 13.02307626 2.9445679 8.68046295 0 3.6875 C-0.33 3.6875 -0.66 3.6875 -1 3.6875 Z M-24 16.6875 C-21.76454254 22.21039491 -18.59506182 25.13734265 -14 28.6875 C-11.98562946 27.90986202 -11.98562946 27.90986202 -10 26.6875 C-9.18415432 23.62841587 -9.18415432 23.62841587 -9 20.6875 C-10.55780332 20.00993118 -12.12150096 19.34590543 -13.6875 18.6875 C-14.55761719 18.31625 -15.42773438 17.945 -16.32421875 17.5625 C-19.0572002 16.66879512 -21.14700934 16.52300324 -24 16.6875 Z M9 20.6875 C8.74994614 23.64567107 8.74994614 23.64567107 9 26.6875 C9.66 27.3475 10.32 28.0075 11 28.6875 C14.50422071 28.37681651 16.27231053 26.8216236 18.6875 24.375 C19.28949219 23.78074219 19.89148438 23.18648437 20.51171875 22.57421875 C22.08578165 20.57875318 22.58891824 19.17043385 23 16.6875 C18.52858403 16.26830475 12.32347499 17.36402501 9 20.6875 Z M-14 34.6875 C-15.29787866 35.93104886 -16.58806759 37.1826264 -17.875 38.4375 C-18.95394531 39.48164062 -18.95394531 39.48164062 -20.0546875 40.546875 C-21.86479679 42.53872217 -22.94848086 44.2302658 -24 46.6875 C-20.48201427 47.86016191 -19.39202021 47.42160958 -15.9375 46.3125 C-15.05964844 46.03664063 -14.18179687 45.76078125 -13.27734375 45.4765625 C-11.00714717 44.74513275 -11.00714717 44.74513275 -9 43.6875 C-9.18129815 40.24956661 -9.18129815 40.24956661 -10 36.6875 C-11.97742781 35.42740208 -11.97742781 35.42740208 -14 34.6875 Z M10.375 35.8125 C8.44348841 38.44637944 8.78794464 40.50666956 9 43.6875 C13.92984325 45.72743514 17.57960425 47.09402968 23 46.6875 C21.58330822 41.49296349 18.07891809 38.02567117 14 34.6875 C11.94466014 34.49776334 11.94466014 34.49776334 10.375 35.8125 Z M4 39.6875 C5 41.6875 5 41.6875 5 41.6875 Z M-3.8203125 44.8046875 C-5.28910691 46.72743926 -5.28910691 46.72743926 -4.7421875 49.5703125 C-4.45601562 50.64023437 -4.16984375 51.71015625 -3.875 52.8125 C-3.46894531 54.42511719 -3.46894531 54.42511719 -3.0546875 56.0703125 C-2.70664062 56.93398438 -2.35859375 57.79765625 -2 58.6875 C-1.01 59.0175 -0.02 59.3475 1 59.6875 C3.7072698 52.87339667 3.7072698 52.87339667 4 45.6875 C3.34 45.0275 2.68 44.3675 2 43.6875 C-1.78777637 43.33878226 -1.78777637 43.33878226 -3.8203125 44.8046875 Z " fill="#B9090D" transform="translate(32,-0.6875)"/>
<path d="M0 0 C2.00720923 0.28674418 4.0085944 0.61866701 6 1 C6.12375 1.639375 6.2475 2.27875 6.375 2.9375 C6.58125 3.618125 6.7875 4.29875 7 5 C7.66 5.33 8.32 5.66 9 6 C9 4.02 9 2.04 9 0 C9.99 0.66 10.98 1.32 12 2 C11.73896484 3.05767578 11.73896484 3.05767578 11.47265625 4.13671875 C10.96683015 7.20093804 11.10342727 9.73160701 11.4375 12.8125 C11.53933594 13.78832031 11.64117187 14.76414062 11.74609375 15.76953125 C11.82988281 16.50558594 11.91367187 17.24164063 12 18 C10.68 18 9.36 18 8 18 C7.67 19.32 7.34 20.64 7 22 C6.67 22 6.34 22 6 22 C5.6596875 20.576875 5.6596875 20.576875 5.3125 19.125 C4.33026976 15.80353159 4.33026976 15.80353159 1.4375 14.8125 C0.633125 14.544375 -0.17125 14.27625 -1 14 C-1.33 13.01 -1.66 12.02 -2 11 C-2.66 11 -3.32 11 -4 11 C-4 11.66 -4 12.32 -4 13 C-3.34 13.66 -2.68 14.32 -2 15 C-2.66 15 -3.32 15 -4 15 C-4 16.32 -4 17.64 -4 19 C-4.66 19 -5.32 19 -6 19 C-7.231394 15.30581799 -6.64432764 12.7943739 -6 9 C-4.35 8.67 -2.7 8.34 -1 8 C-1.020625 6.865625 -1.04125 5.73125 -1.0625 4.5625 C-1 1 -1 1 0 0 Z M6 11 C7 13 7 13 7 13 Z " fill="#BA0A0F" transform="translate(30,28)"/>
<path d="M0 0 C2.00720923 0.28674418 4.0085944 0.61866701 6 1 C6.33 2.65 6.66 4.3 7 6 C6.195625 6.45375 5.39125 6.9075 4.5625 7.375 C1.91143428 8.74725665 1.91143428 8.74725665 1 11 C2.32 10.67 3.64 10.34 5 10 C4.67 10.99 4.34 11.98 4 13 C2.35 13.33 0.7 13.66 -1 14 C-1.33 13.01 -1.66 12.02 -2 11 C-2.66 11 -3.32 11 -4 11 C-4 11.66 -4 12.32 -4 13 C-3.34 13.66 -2.68 14.32 -2 15 C-2.66 15 -3.32 15 -4 15 C-4 16.32 -4 17.64 -4 19 C-4.66 19 -5.32 19 -6 19 C-7.231394 15.30581799 -6.64432764 12.7943739 -6 9 C-4.35 8.67 -2.7 8.34 -1 8 C-1.020625 6.865625 -1.04125 5.73125 -1.0625 4.5625 C-1 1 -1 1 0 0 Z " fill="#BE0B1C" transform="translate(30,28)"/>
<path d="M0 0 C0 2.64 0 5.28 0 8 C-1.32 7.34 -2.64 6.68 -4 6 C-3.67 5.67 -3.34 5.34 -3 5 C-3.66 4.67 -4.32 4.34 -5 4 C-5.33 4.99 -5.66 5.98 -6 7 C-8.4375 6.1875 -8.4375 6.1875 -11 5 C-11.33 4.01 -11.66 3.02 -12 2 C-9.525 2.495 -9.525 2.495 -7 3 C-6.67 2.34 -6.34 1.68 -6 1 C-3 0 -3 0 0 0 Z " fill="#BE0D1B" transform="translate(40,18)"/>
<path d="M0 0 C0.99 0.33 1.98 0.66 3 1 C3.33 3.64 3.66 6.28 4 9 C3.01 9 2.02 9 1 9 C0.67 9.99 0.34 10.98 0 12 C0.020625 11.21625 0.04125 10.4325 0.0625 9.625 C0.18684063 7.01885039 0.18684063 7.01885039 -1 5 C-0.34 5 0.32 5 1 5 C0.67 3.35 0.34 1.7 0 0 Z " fill="#C01223" transform="translate(37,37)"/>
<path d="M0 0 C1.98 0.495 1.98 0.495 4 1 C4 2.65 4 4.3 4 6 C2.35 5.67 0.7 5.34 -1 5 C-0.67 3.35 -0.34 1.7 0 0 Z " fill="#C81D40" transform="translate(30,28)"/>
<path d="M0 0 C0.66 0 1.32 0 2 0 C2 0.66 2 1.32 2 2 C4.31 2.33 6.62 2.66 9 3 C9.33 4.32 9.66 5.64 10 7 C8.68 6.67 7.36 6.34 6 6 C6 5.34 6 4.68 6 4 C4.35 4 2.7 4 1 4 C1 3.34 1 2.68 1 2 C0.34 1.67 -0.32 1.34 -1 1 C-0.67 0.67 -0.34 0.34 0 0 Z " fill="#BC1216" transform="translate(49,12)"/>
</svg>
